<svg xmlns="http://www.w3.org/2000/svg" fill="none" viewBox="3.82 5.19 63.99 61.32">
<path d="M22.2719 57.737H16.5398C7.76281 57.1101 3.82227 50.3632 3.82227 44.3626C3.82227 38.362 7.76284 31.5852 16.3906 30.9881C17.6146 30.8687 18.6893 31.824 18.7788 33.0779C18.8684 34.3019 17.9431 35.3766 16.6892 35.4662C10.8976 35.8841 8.30033 40.2427 8.30033 44.3924C8.30033 48.5421 10.8976 52.9008 16.6892 53.3187H22.2719C23.4959 53.3187 24.5109 54.3337 24.5109 55.5577C24.5109 56.7817 23.4959 57.737 22.2719 57.737Z" fill="#292D32"/>
<path d="M49.7661 57.7372C49.7064 57.7372 49.6766 57.7372 49.6169 57.7372C48.3929 57.7372 47.2585 56.7222 47.2585 55.4982C47.2585 54.2144 48.2138 53.2591 49.4676 53.2591C53.1396 53.2591 56.4236 51.9754 58.991 49.6767C63.6482 45.6166 63.9467 39.7653 62.6928 35.6454C61.439 31.5555 57.9461 26.8684 51.8559 26.1221C50.8707 26.0027 50.0944 25.2563 49.9153 24.2712C48.7212 17.1063 44.8702 12.1505 39.0188 10.3593C32.9884 8.47852 25.9428 10.3294 21.5543 14.9269C17.2852 19.3751 16.3 25.6146 18.7779 32.4809C19.1958 33.6452 18.5989 34.9289 17.4346 35.3469C16.2703 35.7648 14.9865 35.1678 14.5686 34.0035C11.5534 25.5847 12.9267 17.5242 18.3302 11.852C23.8531 6.06037 32.7197 3.76161 40.3324 6.0902C47.3182 8.23967 52.2439 14.0014 54.0352 22.0022C60.1253 23.3755 65.0214 28.0029 66.9619 34.3916C69.0815 41.3475 67.1709 48.5124 61.9465 53.0502C58.6327 56.0355 54.3039 57.7372 49.7661 57.7372Z" fill="#292D32"/>
<path d="M35.8241 66.5144C29.8235 66.5144 24.2111 63.3201 21.1361 58.1554C20.8077 57.6479 20.4793 57.0508 20.2107 56.394C19.1956 54.2744 18.6582 51.8562 18.6582 49.3485C18.6582 39.8849 26.3605 32.1826 35.8241 32.1826C45.2877 32.1826 52.99 39.8849 52.99 49.3485C52.99 51.8861 52.4527 54.2744 51.378 56.4836C51.1391 57.0508 50.8108 57.6479 50.4525 58.2151C47.4373 63.3201 41.8247 66.5144 35.8241 66.5144ZM35.8241 36.6607C28.8383 36.6607 23.1363 42.3627 23.1363 49.3485C23.1363 51.1995 23.5244 52.931 24.2707 54.5132C24.5096 55.0207 24.7185 55.4387 24.9573 55.8268C27.2262 59.6779 31.3759 62.0364 35.7942 62.0364C40.2126 62.0364 44.3622 59.6779 46.6013 55.8865C46.8699 55.4387 47.1089 55.0207 47.288 54.6028C48.0941 52.9608 48.4821 51.2293 48.4821 49.3784C48.5119 42.3627 42.8099 36.6607 35.8241 36.6607Z" fill="#292D32"/>
<path d="M34.1227 54.5425C33.5555 54.5425 32.9883 54.3335 32.5405 53.8857L29.5849 50.9302C28.7191 50.0644 28.7191 48.6315 29.5849 47.7657C30.4506 46.8999 31.8836 46.8999 32.7494 47.7657L34.1825 49.1987L38.959 44.7803C39.8845 43.9444 41.2876 44.0041 42.1235 44.8997C42.9594 45.7953 42.8997 47.2283 42.0041 48.0643L35.6453 53.9454C35.1975 54.3335 34.6601 54.5425 34.1227 54.5425Z" fill="#292D32"/>
</svg>