<?xml version="1.0" encoding="iso-8859-1"?>
<!-- Generator: Adobe Illustrator 20.1.0, SVG Export Plug-In . SVG Version: 6.00 Build 0)  -->
<svg version="1.1" id="Phone-16" xmlns="http://www.w3.org/2000/svg" xmlns:xlink="http://www.w3.org/1999/xlink" x="0px" y="0px"
	 viewBox="0 0 30.888 30.888" style="enable-background:new 0 0 30.888 30.888;" xml:space="preserve">
<g>
	<path d="M23.494,18.708c-0.377-0.378-0.878-0.586-1.412-0.586c0,0,0,0-0.001,0c-0.535,0-1.037,0.208-1.415,0.586l-2.828,2.828
		l-8.485-8.485l2.828-2.828c0.378-0.378,0.586-0.881,0.585-1.416c0-0.534-0.209-1.037-0.586-1.414L7.938,3.15
		C7.56,2.773,7.059,2.565,6.525,2.565H6.524c-0.535,0-1.037,0.209-1.414,0.587L0.866,7.395c-0.435,0.435-3.925,4.561,7.071,15.557
		c6.499,6.499,10.598,7.937,12.953,7.937c1.63,0,2.426-0.689,2.604-0.867l4.241-4.241c0.378-0.377,0.587-0.879,0.587-1.414
		c0-0.536-0.208-1.039-0.586-1.417L23.494,18.708z M22.08,28.607c-0.029,0.028-3.41,2.249-12.729-7.07
		c-9.52-9.52-7.067-12.729-7.071-12.729l4.243-4.244l4.243,4.244l-3.535,3.535c-0.391,0.391-0.391,1.023,0,1.414l9.899,9.899
		c0.391,0.391,1.023,0.391,1.414,0l3.534-3.536l4.243,4.244L22.08,28.607z"/>
	<path d="M28.888,0h-12c-1.103,0-2,0.897-2,2v9c0,1.103,0.897,2,2,2h5v3c0,0.404,0.244,0.769,0.617,0.924
		C22.629,16.975,22.759,17,22.888,17c0.26,0,0.516-0.102,0.707-0.293L27.302,13h1.586c1.103,0,2-0.897,2-2V2
		C30.888,0.897,29.991,0,28.888,0z M28.888,11h-2c-0.265,0-0.52,0.105-0.707,0.293l-2.293,2.293V12c0-0.552-0.448-1-1-1h-6V2h12V11z
		"/>
	<rect x="18.888" y="4" width="8" height="2"/>
	<rect x="18.888" y="7" width="8" height="2"/>
</g>
</svg>
