<svg width="196" height="198" viewBox="0 0 196 198" fill="none" xmlns="http://www.w3.org/2000/svg">
<path d="M161.419 58.034L118.952 15.134C117.724 13.8932 116.065 13.2002 114.333 13.2002H45.7334C38.5141 13.2002 32.6667 19.1072 32.6667 26.4002V171.6C32.6667 178.893 38.5141 184.8 45.7334 184.8H150.267C157.486 184.8 163.333 178.893 163.333 171.6V62.7002C163.333 60.9512 162.647 59.2748 161.419 58.034ZM117.6 138.6H65.3334C61.727 138.6 58.8001 135.643 58.8001 132C58.8001 128.357 61.727 125.4 65.3334 125.4H117.6C121.206 125.4 124.133 128.357 124.133 132C124.133 135.643 121.206 138.6 117.6 138.6ZM130.667 112.2H65.3334C61.727 112.2 58.8001 109.243 58.8001 105.6C58.8001 101.957 61.727 99.0002 65.3334 99.0002H130.667C134.273 99.0002 137.2 101.957 137.2 105.6C137.2 109.243 134.273 112.2 130.667 112.2ZM117.6 66.0002C113.994 66.0002 111.067 63.0434 111.067 59.4002V25.7666L150.894 66.0002H117.6Z" fill="#143C89"/>
</svg>
