<svg width="202" height="142" viewBox="0 0 202 142" fill="none" xmlns="http://www.w3.org/2000/svg">
<path d="M174.952 59.2282C174.986 58.4188 175.067 57.6236 175.067 56.8C175.067 25.4322 150.948 0 121.2 0C100.259 0 82.1467 12.6309 73.2385 31.0341C69.3264 29.3656 65.0777 28.4 60.6 28.4C43.5647 28.4 29.6334 41.7835 27.3912 59.1004C11.4669 64.8159 0 80.6773 0 99.4C0 122.929 18.0857 142 40.4 142H161.6C183.914 142 202 122.929 202 99.4C202 80.8122 190.695 65.0502 174.952 59.2282ZM76.0395 73.0803L96.2395 51.7803C97.5525 50.3958 99.2763 49.7 101 49.7C102.724 49.7 104.447 50.3958 105.76 51.7803L125.96 73.0803C128.593 75.8564 128.593 80.3436 125.96 83.1197C123.328 85.8958 119.072 85.8958 116.44 83.1197L107.733 73.9394V113.6C107.733 117.519 104.724 120.7 101 120.7C97.2765 120.7 94.2667 117.519 94.2667 113.6V73.9394L85.5605 83.1197C82.9277 85.8958 78.6723 85.8958 76.0395 83.1197C73.4068 80.3436 73.4068 75.8564 76.0395 73.0803Z" fill="#143C89"/>
</svg>
